<?xml version="1.0" encoding="UTF-8"?>
<svg width="95px" height="75px" viewBox="0 0 95 75" version="1.1" xmlns="http://www.w3.org/2000/svg" xmlns:xlink="http://www.w3.org/1999/xlink">
    <!-- Generator: Sketch 48.2 (47327) - http://www.bohemiancoding.com/sketch -->
    <title>icon-social-twitter</title>
    <desc>Created with Sketch.</desc>
    <defs></defs>
    <g id="Icons" stroke="none" stroke-width="1" fill="none" fill-rule="evenodd">
        <g id="social-twitter" fill="#000000">
            <path d="M89.6762124,1.42989922 C86.0816445,3.57839673 82.2556783,5.25448596 77.9480492,5.97231611 C74.6010506,2.38739016 69.800978,0 64.5331034,0 C54.4782469,0 46.0978523,8.36009033 46.0978523,18.8682941 C46.0978523,20.2981933 46.3442666,21.7346218 46.57759,23.1649051 C31.2567841,22.4524519 17.8418383,14.8044307 8.74722736,3.57801266 C7.06121486,6.44434032 6.34699855,9.55032877 6.34699855,13.1352547 C6.34699855,19.5861243 9.70708786,25.3195477 14.4940697,28.8979444 C11.3803946,28.8979444 8.74684233,27.9462146 6.11329004,26.5097861 L6.11329004,26.7494469 C6.11329004,35.8277515 12.3402551,43.4630984 20.9551283,45.1445646 C19.51476,45.6108278 17.8410682,45.8570178 16.1681465,45.8570178 C14.9741925,45.8570178 13.7675327,45.8570178 12.8207629,45.6108278 C15.207901,53.0264856 21.9146038,58.5260093 30.0497393,58.7583728 C23.8223891,63.7812634 15.934823,66.8860997 7.30724408,66.8860997 C5.86687579,66.8860997 4.43998327,66.8860997 3,66.6395256 C11.1339804,71.8940116 20.7218048,75 31.256014,75 C65.0120711,75 83.6941215,46.3351871 83.6941215,21.4934247 L83.6941215,19.1056505 C87.2886893,16.4789836 90.4019794,13.1333344 92.7887324,9.30951576 C89.4417338,10.7455601 85.847936,11.9361826 82.2549082,12.1758434 C85.3685833,9.55032877 88.2489349,5.97193203 89.6762124,1.42989922 Z" id="Page-1"></path>
        </g>
    </g>
</svg>