<?xml version="1.0" encoding="UTF-8"?>
<svg width="75px" height="75px" viewBox="0 0 75 75" version="1.1" xmlns="http://www.w3.org/2000/svg" xmlns:xlink="http://www.w3.org/1999/xlink">
    <!-- Generator: Sketch 48.2 (47327) - http://www.bohemiancoding.com/sketch -->
    <title>icon-social-instagram</title>
    <desc>Created with Sketch.</desc>
    <defs></defs>
    <g id="Icons" stroke="none" stroke-width="1" fill="none" fill-rule="evenodd">
        <g id="social-instagram"></g>
        <g id="icon-social-instagram" fill="#000000" fill-rule="nonzero">
            <path d="M74.9607259,27.140248 C74.9258509,23.3815538 74.9176009,19.5977266 73.9748496,15.9121806 C71.7964717,7.39434935 66.2974643,2.37675515 57.7275777,0.770869922 C55.3800746,0.331230239 52.9515713,0.329729762 50.5605681,0.121538615 C50.3243177,0.10090706 50.0918174,0.0416382294 49.8578171,0 C41.622806,0 33.3874199,0 25.1524089,0 C24.3731578,0.0577683543 23.5954068,0.137293621 22.8154057,0.169178752 C19.2585259,0.314724995 15.7485212,0.729981931 12.4455168,2.1588109 C6.35325855,4.79364805 2.64975357,9.44212497 1.04700141,15.8304047 C0.336375453,18.6625545 0.205875277,21.5573492 0.119625161,24.4570205 C0.112875152,24.6922203 0.0412500555,24.9255444 0,25.1599939 C0,33.3976111 0,41.6356035 0,49.8728457 C0.0577500777,50.6523434 0.137625185,51.4310908 0.169125228,52.2113387 C0.317250427,55.8458684 0.752251013,59.4286318 2.24700302,62.7915753 C4.89563159,68.7510937 9.49463778,72.3803718 15.7605212,73.9720025 C18.6382751,74.7019844 21.5831541,74.8790407 24.533658,74.9011727 C32.3411685,74.9574406 40.1501791,75.0350903 47.9565646,74.9825736 C51.6889446,74.9570655 55.4468246,74.9345583 59.1068296,73.9978857 C67.589341,71.827071 72.6289728,66.3544573 74.2182249,57.8129934 C74.7409756,55.0063517 74.8647258,52.0995532 74.9052258,49.2343928 C75.010976,41.870053 75.026351,34.5042127 74.9607259,27.140248 Z M62.0363335,17.527819 C62.0269585,20.0264879 59.9723307,22.04763 57.4673274,22.0243726 C55.0091991,22.0011152 52.9935713,19.9668439 52.9879463,17.5030611 C52.9819463,15.0096439 55.0271991,12.9719965 57.5307024,12.976873 C60.0394558,12.9813745 62.0464585,15.0085185 62.0363335,17.527819 Z M56.7784514,37.5066667 C56.7810764,48.1833089 48.1549398,56.8039228 37.4768005,56.7964205 C26.8455361,56.7889181 18.2283995,48.1611769 18.2306495,37.5257978 C18.2325245,26.8446541 26.8564112,18.2259158 37.5319255,18.236044 C48.1661898,18.2465473 56.7758264,26.866411 56.7784514,37.5066667 Z" id="Shape"></path>
            <circle id="Oval" cx="36.5" cy="36.5" r="11.5"></circle>
        </g>
    </g>
</svg>