<?xml version="1.0" encoding="UTF-8"?>
<svg width="1195px" height="150px" viewBox="0 0 1195 150" version="1.1" xmlns="http://www.w3.org/2000/svg" xmlns:xlink="http://www.w3.org/1999/xlink">
    <!-- Generator: Sketch 48.2 (47327) - http://www.bohemiancoding.com/sketch -->
    <title>logo-inline</title>
    <desc>Created with Sketch.</desc>
    <defs>
        <polygon id="path-1" points="0.446123205 0.291795407 104 0.291795407 104 136.254019 0.446123205 136.254019"></polygon>
        <polygon id="path-3" points="0.256690695 0.362378977 107.3989 0.362378977 107.3989 148 0.256690695 148"></polygon>
        <polygon id="path-5" points="0 151 1196 151 1196 0 0 0"></polygon>
    </defs>
    <g id="Page-1" stroke="none" stroke-width="1" fill="none" fill-rule="evenodd">
        <g id="logo-inline">
            <g transform="translate(-1.000000, -1.000000)">
                <g id="Group-3" transform="translate(1092.000000, 3.000000)">
                    <mask id="mask-2" fill="white">
                        <use xlink:href="#path-1"></use>
                    </mask>
                    <g id="Clip-2"></g>
                    <path d="M66.8262,96.6191 L66.8262,21.4391 L42.9562,21.4391 C42.9562,25.2121 42.9492,28.5321 42.9572,31.8521 C43.0042,51.8221 42.9932,71.7921 43.2192,91.7601 C43.2372,93.3891 44.8052,96.3461 45.7882,96.4031 C52.7112,96.8101 59.6702,96.6191 66.8262,96.6191 Z M104.0002,90.0001 C103.0062,94.3491 102.3262,98.8011 100.9552,103.0271 C97.7532,112.9001 93.7392,117.4341 82.3282,117.1531 C60.8472,116.6231 39.3462,117.0001 17.8532,117.0001 L11.7292,117.0001 L11.7292,12.6271 C11.0912,12.4741 10.4522,12.3221 9.8132,12.1691 C7.7872,18.4311 4.1072,24.6651 4.0102,30.9561 C3.4972,63.7671 3.8942,96.5941 3.9882,129.4141 C3.9902,129.8731 4.1702,130.3311 4.3162,131.0291 C4.8322,130.7141 5.4422,130.5611 5.5442,130.2451 C8.0722,122.3851 13.6122,121.0941 21.3142,121.2981 C42.7922,121.8661 64.2952,121.4951 85.7872,121.4951 L91.1342,121.4951 C91.3932,122.0241 91.6522,122.5551 91.9122,123.0841 C89.0482,125.3171 86.5032,128.5261 83.2562,129.5921 C75.2612,132.2131 67.0132,135.1721 58.7392,135.6121 C40.2952,136.5961 21.7722,136.1271 3.2812,136.2301 C2.6422,136.2331 2.0042,136.0191 0.9772,135.8391 C0.8002,133.6771 0.4772,131.5681 0.4752,129.4601 C0.4432,97.1381 0.4152,64.8141 0.5202,32.4931 C0.5292,29.7401 1.1772,26.8801 2.0872,24.2641 C3.9992,18.7661 6.8642,13.5431 8.2562,7.9381 C9.7032,2.1051 13.0562,0.2161 18.4912,0.2941 C38.4722,0.5821 58.4552,0.7691 78.4352,1.1271 C80.8922,1.1711 83.3852,1.8421 85.7752,2.5231 C94.1642,4.9171 100.7482,9.5171 104.0002,18.0001 L104.0002,90.0001 Z" id="Fill-1" fill="#000000" mask="url(#mask-2)"></path>
                </g>
                <g id="Group-6" transform="translate(517.000000, 3.000000)">
                    <mask id="mask-4" fill="white">
                        <use xlink:href="#path-3"></use>
                    </mask>
                    <g id="Clip-5"></g>
                    <path d="M64.2959,100.8682 L64.2959,19.4292 C58.4679,19.4292 53.4839,19.6752 48.5379,19.3522 C44.3769,19.0812 43.1269,20.5422 43.1459,24.6822 C43.2519,48.4742 43.0989,72.2672 43.0579,96.0592 C43.0549,97.6392 43.2509,99.2182 43.3589,100.8682 L64.2959,100.8682 Z M68.9999,148.0002 C63.8029,137.3592 55.6319,133.3002 43.6779,134.8802 C35.4899,135.9632 27.0389,134.8962 18.7169,135.1512 C13.1049,135.3222 8.5249,133.2532 6.2629,128.4742 C3.6159,122.8852 0.6279,116.7382 0.5229,110.7852 C0.0199,82.3082 0.3409,53.8152 0.5809,25.3292 C0.6969,11.4192 11.2249,1.3492 25.1859,1.1472 C41.8419,0.9072 58.4939,0.4822 75.1499,0.3632 C78.7589,0.3382 82.4829,0.8852 85.9609,1.8582 C92.0919,3.5732 95.8539,7.8602 96.9529,14.1752 C97.4639,17.1102 97.7249,20.1262 97.7339,23.1062 C97.7949,46.0972 98.0569,69.0942 97.6159,92.0762 C97.4539,100.5202 99.2929,107.8142 104.3809,114.4212 C105.3819,115.7212 106.1369,117.2092 107.3989,119.2452 C98.0049,123.1582 88.8899,127.0082 79.7029,130.6812 C78.9639,130.9772 77.5559,130.2812 76.7879,129.6462 C75.9279,128.9352 75.1799,127.8552 74.8369,126.7902 C72.0739,118.2002 66.1089,116.2782 57.5959,116.8872 C46.6559,117.6692 35.6089,116.8082 24.6259,117.1852 C18.8819,117.3842 15.6139,114.8402 14.4279,109.7802 C13.2199,104.6332 12.1679,99.2942 12.1749,94.0402 C12.2109,69.3932 12.5799,44.7482 12.9759,20.1032 C13.0379,16.2062 13.8459,12.3202 14.4199,7.4902 C8.1489,13.1662 3.4489,18.8892 3.4109,26.9722 C3.2749,56.1282 3.3479,85.2832 3.3579,114.4382 C3.3599,120.2852 7.2719,123.9672 11.1249,128.9762 C14.6129,119.8742 21.6249,121.5812 28.2339,121.6632 C40.6549,121.8182 53.0799,121.7082 65.1289,121.7082 C65.5529,122.8022 65.7089,123.0392 65.6579,123.0972 C57.7889,132.2452 64.8219,138.0462 70.8479,144.7562 C77.9429,131.0182 93.2729,131.6592 104.4599,124.7952 C101.6179,130.3572 98.7049,135.4312 92.4499,137.9362 C85.1319,140.8702 78.1359,144.6102 70.9999,148.0002 L68.9999,148.0002 Z" id="Fill-4" fill="#000000" mask="url(#mask-4)"></path>
                </g>
                <mask id="mask-6" fill="white">
                    <use xlink:href="#path-5"></use>
                </mask>
                <g id="Clip-8"></g>
                <path d="M797.935,54.652 L820.356,54.652 L820.356,26.424 L797.935,26.424 L797.935,54.652 Z M836,1 C849.301,5.463 853.767,11.791 853.767,26.173 C853.768,55.325 853.767,84.477 853.767,113.629 C853.767,115.446 853.768,117.265 853.768,119.514 L823.857,119.514 C823.857,108.932 823.693,98.476 823.931,88.029 C824.038,83.3 822.041,82.029 817.672,82.229 C811.539,82.51 805.384,82.3 798.56,82.3 L798.56,119.603 L764.926,119.603 L764.926,20.186 C764.445,20.077 763.964,19.97 763.483,19.862 C760.082,25.888 755.88,31.786 755.83,39.046 C755.617,70.028 755.741,101.013 755.764,131.997 C755.765,132.426 756.049,132.854 756.196,133.271 C756.618,133.176 757.081,133.203 757.171,133.033 C761.181,125.43 767.78,124.259 775.617,124.895 C782.375,125.441 789.211,125.008 797.233,125.008 C793.269,130.201 790.008,134.709 786.442,138.961 C785.664,139.889 783.806,140.254 782.433,140.283 C773.774,140.463 765.111,140.388 756.454,140.589 C753.501,140.657 752.337,139.797 752.346,136.655 C752.437,104.506 752.047,72.35 752.541,40.207 C752.851,20.1 768.605,4.111 788.67,1.947 C790.46,1.754 792.224,1.321 794,1 L836,1 Z" id="Fill-7" fill="#000000" mask="url(#mask-6)"></path>
                <path d="M69.7959,10.1221 C63.8599,20.5551 60.2969,29.9191 60.7679,41.0201 C61.5159,58.6481 60.9279,76.3331 60.9059,93.9931 C60.9029,95.7711 60.9049,97.5501 60.9049,99.4921 L69.7959,99.4921 L69.7959,10.1221 Z M0.9999,98.0001 C3.8169,92.0171 6.7459,86.0831 9.3999,80.0281 C10.5949,77.3031 12.1059,76.0381 15.2749,75.8361 C24.3499,75.2571 33.3949,74.2141 43.0609,73.2951 L43.0609,98.6441 L57.4619,98.6441 C57.4619,88.5191 57.4619,78.5761 57.4629,68.6321 C57.4629,63.4681 57.9039,58.2581 57.3829,53.1451 C55.6919,36.5481 59.3149,21.1191 66.9349,6.4911 C67.6849,5.0511 69.0929,2.9201 70.2479,2.8861 C80.0179,2.5961 89.7989,2.7211 100.2149,2.7211 C100.2149,5.2541 100.2169,7.2001 100.2149,9.1461 C100.1799,40.9691 100.1479,72.7901 100.1049,104.6121 C100.0939,112.4211 98.1739,115.3701 90.7069,117.8831 C87.1109,119.0931 83.2729,120.1851 79.5279,120.2401 C64.5639,120.4631 49.5189,121.1721 34.6469,119.9511 C20.2059,118.7671 13.0699,109.9611 12.0129,95.3351 C11.7679,91.9491 11.9769,88.5291 11.3999,85.0811 C7.4129,91.8911 3.0059,98.6071 4.8199,106.8021 C6.5289,114.5271 8.8009,122.1571 11.3659,129.6441 C11.9839,131.4501 14.7319,132.5261 16.5009,133.9381 C17.6529,132.4071 19.3439,131.0381 19.8589,129.3171 C21.5449,123.6861 24.4939,122.8271 30.4239,123.5201 C50.6229,125.8831 70.9409,126.8851 91.0489,122.1621 C91.9419,121.9521 92.8689,121.8841 94.7719,121.6031 C90.1789,127.0291 86.3069,131.7681 82.2139,136.3081 C81.3359,137.2811 79.7039,137.8991 78.3439,138.0671 C58.4279,140.5251 38.4889,140.7501 18.5219,138.5871 C13.3469,138.0261 9.5019,135.3381 7.7169,130.8341 C5.3509,124.8631 3.9299,118.5161 2.1629,112.3131 C1.6669,110.5731 1.3819,108.7721 0.9999,107.0001 L0.9999,98.0001 Z" id="Fill-9" fill="#000000" mask="url(#mask-6)"></path>
                <path d="M914.389,57.834 L932.081,57.834 L932.081,24.107 L914.389,24.107 L914.389,57.834 Z M971.911,119.668 L935.265,119.668 C935.265,111.725 935.795,104.057 935.066,96.511 C934.627,91.963 933.136,86.934 930.478,83.33 C927.245,78.949 921.81,78.202 916.469,80.134 C915.189,85.249 915.455,89.203 921.638,90.826 C925.601,91.866 927.103,95.085 926.945,99.356 C926.573,109.509 926.533,119.673 926.367,129.833 C926.344,131.254 926.364,132.675 926.364,134.097 C926.871,134.434 927.379,134.771 927.887,135.108 C928.156,134.332 928.387,133.539 928.7,132.78 C932.045,124.685 938.417,123.32 946.41,123.966 C954.288,124.602 962.258,124.104 971.373,124.104 C967.928,129.086 965.181,133.17 962.283,137.146 C961.773,137.844 960.638,138.47 959.786,138.476 C948.001,138.562 936.216,138.534 923.896,138.534 C923.896,125.296 923.915,112.667 923.886,100.038 C923.873,94.716 922.82,93.591 916.408,92.241 L916.408,119.432 L879.908,119.432 L879.908,17.969 C879.445,17.862 878.982,17.755 878.52,17.648 C875.515,23.785 870.834,28.919 870.886,36.714 C871.088,67.535 870.891,98.358 870.842,129.181 C870.839,130.953 870.841,132.727 870.841,136.102 C873.416,132.913 875.454,131.14 876.524,128.903 C878.587,124.593 881.772,123.842 886.181,124.002 C895.422,124.339 904.684,124.104 914.818,124.104 C911.859,129.132 909.429,133.438 906.782,137.607 C906.268,138.419 904.921,139.148 903.951,139.156 C892.158,139.262 880.363,139.225 868.166,139.225 C868.036,137.093 867.859,135.487 867.853,133.882 C867.707,100.729 867.564,67.576 867.5,34.424 C867.497,32.663 867.857,30.745 868.609,29.168 C872.333,21.353 876.368,13.685 880.026,5.841 C881.307,3.096 883.056,2.425 885.868,2.451 C903.026,2.612 920.187,2.549 937.347,2.697 C955.67,2.856 965.733,11.063 969.164,29.171 C970.363,35.501 970.668,42.066 970.73,48.531 C970.84,59.678 965.368,67.833 956,73.537 C954.329,74.555 952.597,75.469 950.724,76.526 C965.331,82.525 976.201,104.957 971.911,119.668 Z" id="Fill-10" fill="#000000" mask="url(#mask-6)"></path>
                <path d="M467.8613,76.6514 C465.1283,76.6514 462.8223,76.6794 460.5163,76.6474 C449.2083,76.4864 437.8603,76.8404 426.6023,76.0014 C412.9053,74.9784 404.4483,67.4634 403.2303,53.7684 C402.0333,40.3104 402.9693,26.6634 402.9693,12.3684 C398.3933,17.1914 394.6173,21.9924 394.5113,28.4434 C394.2843,42.4194 394.3303,56.4024 394.5043,70.3794 C394.5863,77.0374 398.0553,82.0904 403.0873,86.9774 C405.4963,82.0784 409.1353,81.7934 413.1523,81.9754 C416.6323,82.1334 420.1343,81.7554 423.6273,81.7254 C429.5593,81.6744 435.4923,81.7124 442.1423,81.7124 L442.1423,99.3664 L467.8613,99.3664 L467.8613,76.6514 Z M406.9823,88.3754 C390.5123,104.9214 391.1493,129.9714 407.5993,135.7704 C409.2703,133.0934 410.7723,130.1184 412.8363,127.6034 C414.0073,126.1764 416.0823,124.6574 417.7793,124.6234 C442.2193,124.1364 466.6653,123.8954 490.7743,123.5984 C487.9913,133.4804 478.8763,140.5644 467.7423,140.5364 C449.2573,140.4904 430.7733,140.3984 412.2893,140.3494 C399.6383,140.3154 393.5893,134.6974 392.0773,122.0244 C390.6563,110.1214 391.8793,99.0314 401.1933,90.0474 C392.4913,81.1634 390.5023,70.7524 391.0603,59.3464 C391.5743,48.8734 391.4353,38.3674 391.6213,27.8774 C391.8423,15.3294 402.7263,3.6314 415.3833,3.4204 C437.5323,3.0474 459.6943,3.1314 481.8423,3.5024 C484.8653,3.5524 488.8643,5.6094 490.6123,8.0344 C493.6463,12.2414 496.2913,17.2684 497.2503,22.3034 C498.5983,29.3814 498.2593,36.7814 498.6603,44.3954 L462.8303,44.3954 L462.8303,21.9084 L437.7393,21.9084 C437.7393,32.0944 437.6563,42.0094 437.9033,51.9164 C437.9223,52.6704 440.2653,53.9584 441.5543,53.9924 C450.8723,54.2404 460.1973,54.1874 469.5183,54.3234 C472.8423,54.3714 476.1783,54.5304 479.4813,54.8884 C491.2353,56.1654 496.9713,60.5154 498.9153,72.0764 C500.5013,81.5074 501.0173,91.2974 500.5293,100.8534 C499.9563,112.0904 493.6253,118.1554 482.2263,118.8884 C465.6213,119.9574 448.9613,120.2224 432.3213,120.6924 C428.3493,120.8044 424.2843,120.8074 420.4013,120.0984 C411.7793,118.5254 407.1773,112.7904 407.0003,104.0334 C406.9033,99.2534 406.9823,94.4684 406.9823,88.3754 Z" id="Fill-11" fill="#000000" mask="url(#mask-6)"></path>
                <path d="M163.259,104.62 L184.27,104.62 L184.27,24.173 L163.259,24.173 L163.259,104.62 Z M131.333,11.117 C122.607,15.727 119.187,23.614 119.086,32.595 C118.761,61.749 118.799,90.913 119.201,120.065 C119.255,123.985 121.767,128.127 123.939,131.677 C125.541,134.295 128.79,135.196 130.845,131.889 C134.761,125.586 140.677,126.101 146.857,126.099 C168.916,126.095 190.975,125.789 212.796,125.599 C204.916,132.823 194.924,137.128 183.968,138.798 C175.613,140.072 167.086,140.382 158.619,140.721 C151.137,141.021 143.616,140.453 136.142,140.838 C126.104,141.354 115.421,134.537 115.611,121.005 C116.011,92.356 115.491,63.695 115.449,35.039 C115.444,31.733 115.705,28.339 116.471,25.136 C119.736,11.484 129.458,3.939 144.001,3.859 C164.495,3.747 184.991,3.964 205.483,3.789 C210.964,3.743 214.83,6.075 216.274,10.891 C218.311,17.681 220.442,24.752 220.589,31.743 C221.072,54.723 220.954,77.726 220.521,100.709 C220.247,115.259 214.228,120.723 199.721,121.013 C180.903,121.39 162.083,121.727 143.263,121.997 C136.089,122.101 132.552,119.771 131.191,112.725 C129.907,106.068 129.297,99.192 129.24,92.406 C129.061,70.915 129.156,49.418 129.429,27.928 C129.498,22.51 130.624,17.106 131.333,11.117 Z" id="Fill-12" fill="#000000" mask="url(#mask-6)"></path>
                <path d="M705.1973,11.6895 C700.0013,21.4125 695.8793,31.0425 696.4793,42.4895 C697.3513,59.1005 696.7033,75.7915 696.7033,92.4485 L696.7033,97.7455 L705.1973,97.7455 L705.1973,11.6895 Z M643.8863,11.5845 C640.8553,18.3775 636.7483,24.5075 636.8513,32.7445 C637.2143,61.3915 636.8393,90.0485 637.1493,118.6985 C637.1983,123.1925 639.3503,127.6635 640.5303,132.1455 C641.2533,132.1745 641.9753,132.2055 642.6983,132.2355 C645.2603,128.1165 647.8223,123.9965 650.6793,119.4015 C655.5923,126.7895 662.9863,126.8605 670.6803,126.7685 C686.1703,126.5845 701.6633,126.7795 717.1543,126.8365 C718.5983,126.8425 720.0423,126.9855 722.4253,127.1165 C719.3823,131.6485 716.8623,135.6905 713.9953,139.4675 C713.2823,140.4065 711.4463,140.9005 710.1243,140.9065 C691.3003,140.9945 672.4743,141.1095 653.6523,140.9035 C643.3323,140.7905 633.9103,131.0945 633.8833,120.8235 C633.8013,90.1715 633.5683,59.5155 634.1143,28.8745 C634.2113,23.4145 638.0763,18.1075 639.6203,12.5675 C641.7373,4.9675 646.0773,2.1925 654.0523,3.1125 C661.2723,3.9445 668.6643,3.2885 676.5393,3.2885 L676.5393,97.6675 L692.9003,97.6675 C692.9733,96.1365 693.1283,94.3865 693.1303,92.6375 C693.1483,75.9785 693.4453,59.3125 693.0173,42.6655 C692.7943,33.9575 694.0513,25.8675 698.0263,18.1195 C700.3653,13.5635 701.1733,7.1355 704.7973,4.6415 C708.2273,2.2815 714.4363,3.9205 719.4243,3.8725 C724.3953,3.8225 729.3683,3.8615 735.1203,3.8615 L735.1203,10.0285 C735.1203,40.1795 734.9203,70.3345 735.2783,100.4815 C735.3553,107.0005 733.6183,111.5885 728.9813,116.1995 C724.7483,120.4085 720.7203,122.3845 714.6873,122.2035 C700.2083,121.7655 685.7063,122.0625 671.2133,122.0615 C656.2473,122.0605 645.7093,111.4785 645.6243,96.3205 C645.4783,70.3355 645.3563,44.3515 645.2263,18.3675 C645.2163,16.2105 645.2253,14.0555 645.2253,11.8995 C644.7793,11.7945 644.3333,11.6895 643.8863,11.5845 Z" id="Fill-13" fill="#000000" mask="url(#mask-6)"></path>
                <path d="M1029.2246,99.8799 L1077.3946,99.8799 L1077.3946,119.7389 C1075.6176,119.8269 1073.8616,119.9869 1072.1046,119.9879 C1053.4406,120.0069 1034.7776,119.9999 1016.1136,119.9999 C1004.7926,119.9999 999.1766,114.7799 998.7386,103.2339 C998.3396,92.7489 998.3626,82.2469 998.2666,71.7509 C998.1476,58.7549 997.8466,45.7529 998.1136,32.7629 C998.2666,25.2359 999.3796,17.7299 1000.1326,9.4239 C998.0356,11.7909 995.2776,13.7279 994.2226,16.3489 C992.3286,21.0549 990.4326,26.1519 990.3336,31.1209 C989.8346,56.4419 989.6246,81.7769 989.9946,107.0989 C990.0826,113.2139 992.5776,119.3449 994.3436,125.3569 C994.9036,127.2599 996.6926,128.8009 998.3926,131.1659 C1000.3946,128.0719 1001.9706,125.6379 1002.9876,124.0669 L1075.8116,124.0669 C1074.8746,125.6529 1074.5356,126.1229 1074.3006,126.6399 C1069.0896,138.1509 1059.7566,140.0479 1048.1676,139.2189 C1035.4026,138.3049 1022.5106,138.7049 1009.6926,139.1109 C1000.3186,139.4079 993.9976,135.0749 991.1716,126.8749 C988.6076,119.4299 986.6226,111.3809 986.5076,103.5679 C986.1446,78.7529 986.5016,53.9169 987.1176,29.1029 C987.5036,13.5009 998.7066,3.3019 1014.2986,3.2879 C1033.2956,3.2709 1052.2926,3.2779 1071.2896,3.2929 C1072.9146,3.2939 1074.5396,3.4269 1076.4536,3.5109 L1076.4536,24.7659 L1028.0616,24.7659 L1028.0616,51.3569 L1068.6116,51.3569 L1068.6116,76.7589 L1030.8136,76.7589 C1030.2776,84.5619 1029.7716,91.9179 1029.2246,99.8799" id="Fill-14" fill="#000000" mask="url(#mask-6)"></path>
                <path d="M251.3887,10.1807 C243.8037,14.1627 241.1727,21.3807 241.0037,29.0817 C240.4267,55.3927 240.2067,81.7177 240.3497,108.0347 C240.3937,116.1737 242.7327,124.0297 248.9677,131.0637 C250.9217,128.0877 252.5097,125.6707 253.5427,124.0997 L326.6447,124.0997 C322.8477,129.1847 320.1137,133.2477 316.9177,136.9077 C315.7917,138.1967 313.5407,139.1367 311.7937,139.1517 C293.9697,139.3067 276.1417,139.2737 258.3157,139.2157 C250.5937,139.1917 244.9777,135.0347 242.4017,128.3117 C239.7637,121.4267 237.4687,113.9327 237.3207,106.6587 C236.8077,81.3507 237.1167,56.0197 237.4657,30.7017 C237.6527,17.0737 246.9157,2.2357 266.2527,3.1107 C284.5417,3.9377 302.8977,3.2877 321.2247,3.2877 L326.8707,3.2877 L326.8707,24.8557 L278.4457,24.8557 L278.4457,51.4427 L319.2227,51.4427 L319.2227,76.7417 C308.9167,76.7417 298.4647,76.7407 288.0127,76.7417 C281.2427,76.7417 281.2367,76.7417 280.8147,83.4577 C280.4837,88.7237 280.1717,93.9907 279.8207,99.7427 L327.6747,99.7427 L327.6747,119.9997 L322.3917,119.9997 L267.4117,119.9997 C254.8187,119.9997 249.3017,114.5067 249.1667,101.5067 C248.9507,80.6837 248.9117,59.8597 248.7077,39.0357 C248.6137,29.4027 247.8187,19.7207 251.3887,10.1807" id="Fill-15" fill="#000000" mask="url(#mask-6)"></path>
                <path d="M811.29,98.6689 C807.801,98.4379 804.858,98.2429 801.548,98.0229 L801.548,86.3679 L819.787,86.3679 C819.815,86.6809 819.995,87.1499 819.853,87.2899 C814.337,92.6609 813.834,99.3539 814.143,106.5689 C814.532,115.6819 814.236,124.8229 814.236,135.0169 C815.853,133.6009 816.992,132.9819 817.582,132.0239 C821.323,125.9609 826.632,124.1419 833.6,124.8849 C839.289,125.4909 845.094,125.0079 851.963,125.0079 C847.792,130.2829 844.363,134.7079 840.805,139.0269 C840.252,139.6979 839.112,140.2309 838.238,140.2389 C829.446,140.3269 820.652,140.2929 811.29,140.2929 L811.29,98.6689 Z" id="Fill-16" fill="#000000" mask="url(#mask-6)"></path>
                <path d="M1031.2324,39.6953 L1031.2324,28.8143 L1072.6834,28.8143 C1067.0744,35.8303 1061.4064,41.1193 1051.6734,39.8563 C1045.1634,39.0103 1038.4534,39.6953 1031.2324,39.6953" id="Fill-17" fill="#000000" mask="url(#mask-6)"></path>
                <path d="M282.4707,39.6953 C282.0707,38.8593 281.9557,38.7163 281.9327,38.5583 C280.4527,28.5643 280.5617,28.4343 290.3947,28.4343 L323.6557,28.4343 C317.7707,35.1393 312.9197,40.9733 303.4247,39.8533 C296.5517,39.0433 289.5057,39.6953 282.4707,39.6953" id="Fill-18" fill="#000000" mask="url(#mask-6)"></path>
                <path d="M283.479,80.0059 L314.134,80.0059 C308.53,89.6829 298.623,93.3179 283.479,91.1399 L283.479,80.0059 Z" id="Fill-19" fill="#000000" mask="url(#mask-6)"></path>
                <path d="M1032.624,80.0312 L1063.795,80.0312 C1056.773,90.8422 1046.594,93.2182 1034.909,91.5192 C1034.043,91.3932 1032.828,89.9202 1032.728,88.9722 C1032.435,86.2032 1032.624,83.3832 1032.624,80.0312" id="Fill-20" fill="#000000" mask="url(#mask-6)"></path>
                <path d="M441.0176,37.9199 L441.0176,26.0059 L456.0186,26.0059 C450.2776,35.5869 447.1596,38.1589 441.0176,37.9199" id="Fill-21" fill="#000000" mask="url(#mask-6)"></path>
                <path d="M1138.9258,27.4873 L1152.8088,27.4873 C1147.7098,31.5763 1147.7098,39.6063 1138.9258,38.2813 L1138.9258,27.4873 Z" id="Fill-22" fill="#000000" mask="url(#mask-6)"></path>
                <path d="M564.291,27.3184 L575.862,27.3184 C573.029,35.4034 569.405,38.8464 564.291,38.0374 L564.291,27.3184 Z" id="Fill-23" fill="#000000" mask="url(#mask-6)"></path>
                <path d="M815.0576,30.2852 C810.3956,34.6412 809.4156,43.3252 800.5286,43.0322 L800.5286,30.2852 L815.0576,30.2852 Z" id="Fill-24" fill="#000000" mask="url(#mask-6)"></path>
                <path d="M916.4854,38.2363 L916.4854,26.7533 L929.9364,26.7533 C925.5514,31.4843 921.8504,35.4783 918.1504,39.4713 C917.5954,39.0593 917.0404,38.6483 916.4854,38.2363" id="Fill-25" fill="#000000" mask="url(#mask-6)"></path>
                <path d="M179.874,27.4863 C174.724,31.6523 174.768,39.5143 166.589,38.8063 L166.589,27.4863 L179.874,27.4863 Z" id="Fill-26" fill="#000000" mask="url(#mask-6)"></path>
            </g>
        </g>
    </g>
</svg>