<?xml version="1.0" encoding="utf-8"?>
<!-- Generator: Adobe Illustrator 16.0.4, SVG Export Plug-In . SVG Version: 6.00 Build 0)  -->
<!DOCTYPE svg PUBLIC "-//W3C//DTD SVG 1.1//EN" "http://www.w3.org/Graphics/SVG/1.1/DTD/svg11.dtd">
<svg version="1.1" id="Layer_1" xmlns="http://www.w3.org/2000/svg" xmlns:xlink="http://www.w3.org/1999/xlink" x="0px" y="0px"
	 width="209.337px" height="146.698px" viewBox="30.898 -3.833 209.337 146.698"
	 enable-background="new 30.898 -3.833 209.337 146.698" xml:space="preserve">
<g id="Layer_1_1_" display="none">
</g>
<g id="_x32_5">
	<g>
		<path fill="#FFFFFF" d="M57.432,142.864c-0.77-13.3-0.732-13.182,11.582-16.973c40.715-12.541,81.536-11.641,122.512-1.383
			c3.295,0.828,4.596,2.22,4.279,5.494c-0.412,4.28-0.676,8.571-1.004,12.86C149.011,142.864,103.221,142.864,57.432,142.864z
			 M178.415,133.841c-10.906-11-27.26-10.998-34.299-0.216C155.38,137.644,166.749,139.87,178.415,133.841z M72.904,135.517
			c11.473,2.949,22.496,4.248,33.545-0.324C96.878,123.722,86.231,123.777,72.904,135.517z M144.366,127.894
			c11.584-7.783,22.75-6.557,33.736,1.271C169.37,119.373,152.399,118.783,144.366,127.894z M105.705,128.983
			c-8.517-8.715-27.695-7.352-32.561,2.664C83.661,122.332,94.471,122.688,105.705,128.983z"/>
		<path fill="#FFFFFF" d="M200.849,142.864c-0.037-4.307,2.705-6.802,6.023-8.68c2.715-1.537,5.18-0.396,6.684,2.009
			c1.266,2.024,1.92,4.435,2.846,6.671c-0.576,0-1.152,0-1.729,0c-1.166-1.734-2.094-4.59-3.557-4.898
			c-1.596-0.336-3.75,1.596-5.529,2.748c-0.629,0.402-0.867,1.418-1.283,2.15C203.153,142.864,202.001,142.864,200.849,142.864z"/>
		<path fill="#FFFFFF" d="M38.425,142.864c4.326-6.566,8.952-6.566,12.958,0C47.064,142.864,42.744,142.864,38.425,142.864z"/>
		<path fill="#FFFFFF" d="M213.808,142.864c-2.59,0-5.184,0-7.773,0c1.475-1.334,2.951-2.669,4.428-4.004
			C211.575,140.195,212.692,141.53,213.808,142.864z"/>
		<path fill="#FFFFFF" d="M212.438,9.878c-0.863-8.471,2.135-12.334,9.76-13.386c0.568-0.077,1.143-0.198,1.711-0.191
			c5.547,0.072,11.301,0.193,14.434,5.728c3.158,5.572-0.139,10.209-3.291,14.572c-2.004,2.773-4.26,5.363-7.082,8.878
			c2.654,0,4.561,0.126,6.443-0.026c3.852-0.311,4.021,2.081,4.061,4.952c0.041,2.958-0.754,4.576-4.123,4.476
			c-5.885-0.178-11.777-0.021-17.666-0.059c-4.662-0.031-6.158-2.549-3.561-6.61c2.547-3.979,5.684-7.577,8.438-11.429
			c2.082-2.912,4.203-5.842,5.83-9.006c0.648-1.266,0.166-3.217-0.133-4.792c-0.068-0.371-2.012-0.883-2.174-0.658
			c-0.924,1.266-2.076,2.691-2.203,4.144c-0.229,2.62-1.336,3.548-3.816,3.431C216.946,9.798,214.815,9.878,212.438,9.878z"/>
		<path fill="#FFFFFF" d="M204.497,106.429c-23.766-16.189-49.906-18.603-76.465-18.502c-26.716,0.104-52.309,5.465-75.903,18.629
			c-0.607,0.338-1.273,0.574-2.509,1.127c-0.226-2.457-0.931-4.642-0.519-6.588c2.353-11.094,0.816-22.024-0.646-33.043
			c-1.207-9.088-0.252-18.101,2.798-26.816c2.943-8.412,8.237-14.747,16.431-18.498c1.83-0.837,3.635-1.742,5.51-2.469
			c12.721-4.923,25.492-9.713,38.178-14.725c12.732-5.029,25.332-3.944,38.004,0.187c7.641,2.491,15.342,4.801,23.051,7.079
			c18.686,5.519,27.635,19.21,30.861,37.332c0.996,5.597,1.186,11.514,0.621,17.175c-1.094,10.966-1.133,21.821,0.551,32.708
			C204.735,101.796,204.497,103.647,204.497,106.429z M100.479,49.614c0.35,5.676,0.793,10.118,0.858,14.564
			c0.097,6.599,3.56,10.888,9.259,13.278c8.582,3.603,17.383,3.55,26.016,0.037c4.635-1.886,8.033-5.251,8.9-10.33
			c2.047-11.979,2.328-23.989,0.295-36.036c-0.951-5.639-4.066-9.529-9.154-11.638c-8.605-3.56-17.413-3.617-26.021-0.032
			c-5.576,2.32-8.987,6.555-9.293,12.861C101.039,38.486,100.725,44.654,100.479,49.614z M174.558,36.958
			c4.604,0.958,8.445,1.757,12.92,2.689c0-2.72-0.211-4.73,0.043-6.68c0.498-3.773-1.041-6.023-4.592-7.094
			c-4.535-1.369-9.004-3.012-13.609-4.07c-4.523-1.039-9.178-1.495-13.51-2.165c-0.516,1.109-0.736,1.362-0.736,1.619
			c-0.055,18.711-0.15,37.421,0.016,56.132c0.012,1.172,1.932,3.025,3.271,3.367c7.367,1.899,14.846,3.375,22.26,5.106
			c2.457,0.574,4.836,1.479,7.246,2.231c2.568-9.045,1.406-11.508-6.373-14.256c-1.492-0.527-3.088-0.882-4.434-1.664
			c-0.986-0.574-2.244-1.658-2.336-2.617c-0.297-3.086-0.109-6.217-0.109-9.785c2.383,0.514,4.051,0.854,5.709,1.23
			c1.791,0.41,3.574,0.854,5.332,1.274c2.699-8.821,1.512-11.108-6.537-13.213c-0.418-0.109-0.832-0.263-1.256-0.312
			c-2.471-0.291-3.432-1.703-3.326-4.134C174.638,42.355,174.558,40.078,174.558,36.958z M65.268,91.022
			c5.733-1.963,10.787-3.535,15.718-5.42c6.994-2.682,10.833-7.521,10.745-15.422c-0.164-14.816,0.028-29.642,0.038-44.459
			c0.001-0.943-0.302-1.886-0.573-3.468c-5.207,1.655-10.031,3.392-14.971,4.684c-3.284,0.861-4.217,2.616-4.179,5.865
			c0.153,13.242,0.165,26.48-0.048,39.714c-0.032,2.041-1.041,5.379-2.401,5.863C63.023,80.724,65.006,85.55,65.268,91.022z"/>
		<path fill="#FFFFFF" d="M154.896,135.15c-2.904-0.767-5.49-1.453-9.082-2.402c3.061-1.978,5.539-3.577,8.355-5.396
			C154.446,130.337,154.651,132.531,154.896,135.15z"/>
		<path fill="#FFFFFF" d="M169.183,128.691c2.281,1.456,4.285,2.731,7.188,4.584c-3.498,1.114-6.166,1.964-9.395,2.991
			C167.761,133.57,168.366,131.494,169.183,128.691z"/>
		<path fill="#FFFFFF" d="M97.534,129.636c2.426,1.658,4.37,2.994,7.322,5.016c-3.392,0.66-5.728,1.113-8.545,1.662
			C96.739,133.98,97.078,132.128,97.534,129.636z"/>
		<path fill="#FFFFFF" d="M84.053,136.132c-2.653-0.438-4.967-0.817-8.194-1.352c2.417-1.771,4.189-3.068,6.315-4.624
			C82.846,132.296,83.376,133.978,84.053,136.132z"/>
		<path fill="#FFFFFF" d="M119.886,48.312c0.35-5.464,0.617-11.635,1.246-17.767c0.117-1.147,1.684-2.147,2.58-3.213
			c0.957,1.06,2.723,2.107,2.739,3.182c0.187,11.891,0.187,23.791-0.043,35.681c-0.022,1.133-1.946,2.229-2.985,3.342
			c-0.883-1.102-2.426-2.141-2.533-3.314C120.356,60.511,120.206,54.765,119.886,48.312z"/>
	</g>
</g>
</svg>
