<?xml version="1.0" encoding="UTF-8"?>
<svg width="211px" height="147px" viewBox="0 0 211 147" version="1.1" xmlns="http://www.w3.org/2000/svg" xmlns:xlink="http://www.w3.org/1999/xlink">
    <!-- Generator: Sketch 48.2 (47327) - http://www.bohemiancoding.com/sketch -->
    <title>Artboard</title>
    <desc>Created with Sketch.</desc>
    <defs></defs>
    <g id="Page-1" stroke="none" stroke-width="1" fill="none" fill-rule="evenodd">
        <g id="Artboard">
            <path d="M15,142 L29,121 L175,125 L177,138 L182,140 C186.130333,146.171603 187.463667,149.504936 186,150 C184.536333,150.495064 160.536333,154.828397 114,163 L8,147 L15,142 Z" id="Rectangle" fill="#FFFFFF"></path>
            <g id="Joe-Squared-Logo-Dark" transform="translate(1.000000, 1.000000)">
                <path d="M6.049,147 C6.895,142.667 9.987,140.993 14.307,139.67 C13.548,139.254 12.811,138.55 12.027,138.491 C10.912,138.408 9.768,138.887 8.626,138.97 C2.03,139.49 -1.092,135.304 1.34,129.097 C1.961,127.511 2.791,125.909 3.885,124.62 C10.459,116.891 12.856,107.629 12.77,97.893 C12.671,86.696 12.098,75.451 10.785,64.335 C9.463,53.139 13.331,44.412 20.932,36.733 C28.376,29.214 37.178,24.154 47.232,20.864 C55.809,18.056 64.409,15.067 72.53,11.176 C88.284,3.629 103.99,3.284 120.208,9.237 C126.661,11.606 133.251,13.796 139.958,15.233 C157.414,18.974 174.129,38.294 175.294,57.593 C176.015,69.49 175.713,81.447 176.048,93.373 C176.237,100.096 176.724,106.814 177.253,113.519 C177.329,114.484 178.327,115.445 179.046,116.275 C181.586,119.213 184.484,121.892 186.683,125.056 C188.521,127.702 190.076,130.769 190.839,133.874 C191.749,137.569 189.821,138.913 186.136,137.677 C183.823,136.898 181.597,135.857 179.288,135.07 C178.442,134.783 177.464,134.882 176.29,135.361 C182.776,136.784 185.372,140.998 185.752,146.997 C185.464,146.997 185.176,146.997 184.888,146.997 C183.963,144.76 183.308,142.351 182.043,140.326 C180.54,137.922 178.074,136.779 175.36,138.316 C172.041,140.195 169.299,142.689 169.336,146.997 C167.319,146.997 165.306,146.997 163.289,146.997 C163.617,142.708 163.881,138.417 164.293,134.137 C164.61,130.862 163.31,129.471 160.013,128.643 C119.037,118.385 78.217,117.485 37.502,130.026 C25.188,133.818 25.151,133.7 25.921,147 C23.903,147 21.888,147 19.872,147 C15.865,140.434 11.239,140.434 6.914,147 C6.625,147 6.338,147 6.049,147 Z" id="Shape" fill="#444444" fill-rule="nonzero"></path>
                <path d="M172.985,110.564 C172.985,107.783 173.221,105.931 172.948,104.158 C171.264,93.271 171.302,82.416 172.397,71.45 C172.96,65.789 172.772,59.872 171.774,54.275 C168.548,36.153 159.598,22.463 140.914,16.943 C133.206,14.665 125.505,12.355 117.863,9.864 C105.192,5.734 92.592,4.649 79.86,9.678 C67.174,14.69 54.403,19.48 41.682,24.403 C39.807,25.13 38.002,26.035 36.172,26.872 C27.979,30.623 22.685,36.958 19.741,45.37 C16.691,54.087 15.736,63.099 16.943,72.186 C18.405,83.205 19.942,94.135 17.589,105.229 C17.176,107.175 17.882,109.36 18.108,111.817 C19.344,111.264 20.01,111.028 20.617,110.69 C44.212,97.526 69.805,92.165 96.52,92.061 C123.079,91.963 149.221,94.375 172.985,110.564 Z" id="Path" fill="#FFFFFF"></path>
                <path d="M182.296,147 C181.181,145.666 180.066,144.331 178.949,142.996 C177.473,144.331 175.997,145.666 174.52,147 C173.946,147 173.369,147 172.792,147 C173.207,146.268 173.444,145.252 174.074,144.85 C175.851,143.698 178.009,141.766 179.603,142.102 C181.066,142.412 181.995,145.266 183.16,147 C182.873,147 182.585,147 182.296,147 Z" id="Shape" fill="#444444" fill-rule="nonzero"></path>
                <path d="M180.927,14.014 C180.064,5.543 183.062,1.68 190.687,0.628 C191.256,0.551 191.831,0.43 192.398,0.437 C197.946,0.509 203.699,0.63 206.833,6.165 C209.991,11.737 206.693,16.374 203.541,20.737 C201.538,23.51 199.281,26.1 196.46,29.615 C199.114,29.615 201.02,29.741 202.902,29.589 C206.754,29.278 206.923,31.67 206.964,34.541 C207.004,37.499 206.21,39.117 202.84,39.017 C196.955,38.839 191.063,38.996 185.175,38.958 C180.512,38.927 179.016,36.409 181.614,32.348 C184.161,28.369 187.297,24.771 190.052,20.919 C192.133,18.007 194.254,15.077 195.881,11.913 C196.53,10.647 196.047,8.696 195.749,7.121 C195.68,6.75 193.736,6.238 193.574,6.463 C192.65,7.729 191.498,9.154 191.372,10.607 C191.143,13.227 190.036,14.155 187.555,14.038 C185.435,13.934 183.304,14.014 180.927,14.014 Z" id="Shape" fill="#444444" fill-rule="nonzero"></path>
                <path d="M146.903,137.977 C135.238,144.006 123.868,141.78 112.604,137.761 C119.644,126.979 135.997,126.977 146.903,137.977 Z M123.384,139.286 C123.14,136.667 122.935,134.473 122.657,131.488 C119.841,133.306 117.362,134.906 114.302,136.884 C117.894,137.833 120.479,138.521 123.384,139.286 Z M137.672,132.827 C136.855,135.63 136.25,137.706 135.464,140.402 C138.693,139.375 141.36,138.525 144.859,137.411 C141.956,135.561 139.952,134.283 137.672,132.827 Z" id="Shape" fill="#444444" fill-rule="nonzero"></path>
                <path d="M41.393,139.652 C54.72,127.913 65.368,127.857 74.938,139.328 C63.888,143.9 52.865,142.604 41.393,139.652 Z M66.023,133.771 C65.566,136.261 65.227,138.116 64.8,140.449 C67.617,139.9 69.953,139.447 73.345,138.787 C70.394,136.766 68.45,135.432 66.023,133.771 Z M52.542,140.268 C51.866,138.115 51.336,136.432 50.663,134.292 C48.537,135.848 46.766,137.146 44.348,138.916 C47.574,139.449 49.889,139.83 52.542,140.268 Z" id="Shape" fill="#444444" fill-rule="nonzero"></path>
                <path d="M112.854,132.029 C120.887,122.919 137.858,123.508 146.59,133.3 C135.604,125.473 124.438,124.246 112.854,132.029 Z" id="Shape" fill="#444444" fill-rule="nonzero"></path>
                <path d="M74.194,133.119 C62.96,126.824 52.15,126.468 41.633,135.783 C46.499,125.768 65.677,124.404 74.194,133.119 Z" id="Shape" fill="#444444" fill-rule="nonzero"></path>
                <path d="M68.968,53.75 C69.215,48.79 69.528,42.622 69.827,36.456 C70.134,30.149 73.545,25.915 79.121,23.595 C87.729,20.01 96.536,20.068 105.142,23.627 C110.23,25.735 113.345,29.626 114.297,35.265 C116.33,47.312 116.048,59.323 114.001,71.301 C113.134,76.38 109.735,79.745 105.101,81.631 C96.468,85.145 87.666,85.195 79.086,81.594 C73.386,79.202 69.922,74.913 69.826,68.317 C69.761,63.868 69.317,59.426 68.968,53.75 Z M88.375,52.447 C88.696,58.9 88.845,64.646 89.377,70.357 C89.485,71.531 91.028,72.57 91.91,73.67 C92.95,72.558 94.873,71.461 94.896,70.328 C95.126,58.436 95.126,46.538 94.939,34.647 C94.922,33.573 93.156,32.525 92.199,31.465 C91.303,32.53 89.737,33.53 89.619,34.678 C88.991,40.812 88.724,46.983 88.375,52.447 Z" id="Shape" fill="#444444" fill-rule="nonzero"></path>
                <path d="M143.046,41.094 C143.046,44.214 143.127,46.491 143.025,48.758 C142.919,51.19 143.879,52.6 146.351,52.891 C146.775,52.94 147.187,53.093 147.605,53.203 C155.656,55.307 156.843,57.596 154.144,66.416 C152.386,65.994 150.601,65.552 148.812,65.141 C147.154,64.764 145.486,64.424 143.101,63.912 C143.101,67.481 142.914,70.61 143.211,73.698 C143.304,74.657 144.562,75.74 145.548,76.313 C146.894,77.096 148.489,77.451 149.98,77.977 C157.76,80.727 158.922,83.19 156.355,92.233 C153.945,91.483 151.564,90.577 149.107,90.003 C141.693,88.273 134.214,86.796 126.847,84.896 C125.509,84.556 123.588,82.702 123.577,81.529 C123.41,62.82 123.506,44.109 123.561,25.398 C123.561,25.141 123.782,24.888 124.297,23.779 C128.628,24.449 133.282,24.905 137.805,25.944 C142.411,27.003 146.88,28.645 151.416,30.014 C154.966,31.084 156.505,33.334 156.008,37.108 C155.753,39.057 155.964,41.068 155.964,43.788 C151.492,42.851 147.649,42.052 143.046,41.094 Z" id="Shape" fill="#444444" fill-rule="nonzero"></path>
                <path d="M33.757,95.158 C33.495,89.683 31.512,84.859 38.087,82.515 C39.447,82.031 40.456,78.693 40.488,76.652 C40.701,63.419 40.689,50.179 40.536,36.938 C40.498,33.689 41.431,31.934 44.715,31.073 C49.655,29.781 54.479,28.045 59.686,26.389 C59.957,27.971 60.26,28.913 60.259,29.857 C60.249,44.675 60.057,59.5 60.221,74.316 C60.309,82.217 56.471,87.056 49.476,89.738 C44.543,91.623 39.49,93.195 33.757,95.158 Z" id="Shape" fill="#444444" fill-rule="nonzero"></path>
            </g>
        </g>
    </g>
</svg>